<svg id="Icons" xmlns="http://www.w3.org/2000/svg" viewBox="0 0 512 512"><defs><style>.cls-1{fill:#8d00af;}.cls-2{fill:#aa0dd1;}.cls-3{fill:#efb732;}.cls-4{fill:#fbdb58;}.cls-5{fill:#f9eaa5;}.cls-6{fill:#6b250c;}.cls-7{fill:#7a2b13;}.cls-8{fill:#dd8c29;}.cls-9{fill:#962a11;}.cls-10{fill:#fff;}.cls-11{fill:#ebd9ea;}.cls-12{fill:#f39e22;}.cls-13{fill:#f9c744;}.cls-14{fill:#c44a1a;}</style></defs><title>019-beer-export</title><circle class="cls-1" cx="256" cy="256" r="255.98"/><path class="cls-2" d="M0,255.76A255.63,255.63,0,0,1,103.44,50.44c113.54-84.25,273.87-60.52,358.12,53a254.76,254.76,0,0,1,49.93,136,76.89,76.89,0,0,0-14.24,6.88c-23.84,14.74-42,41.9-69.91,44.44-19.15,1.75-37.29-9.24-51.1-22.62s-24.87-29.51-39.4-42.12a112.53,112.53,0,0,0-157.7,10c-14.17,15.89-26.53,37.44-47.68,40-28.75,3.44-51.22-31.63-80-28.95-9.3.87-17.72,5.66-26.73,8A54.5,54.5,0,0,1,0,255.76Z"/><path class="cls-3" d="M414.19,202.59A301.27,301.27,0,0,1,378.1,412.82a6.12,6.12,0,0,1-3,2.66,4.42,4.42,0,0,1-1.26.29,3.46,3.46,0,0,1-2.07-.48c-2-1.21-2.31-4.19-.84-6.69A292.91,292.91,0,0,0,406,204.18c-.53-2.75.81-5.37,3.07-5.86a3.45,3.45,0,0,1,2.1.22A5.43,5.43,0,0,1,414.19,202.59Z"/><path class="cls-4" d="M414.19,202.59A301.27,301.27,0,0,1,378.1,412.82a6.12,6.12,0,0,1-3,2.66,4.42,4.42,0,0,1-1.26.29,5.83,5.83,0,0,1,.56-5.13A297,297,0,0,0,410,203.41a5.58,5.58,0,0,1,1.21-4.87A5.43,5.43,0,0,1,414.19,202.59Z"/><path class="cls-3" d="M397.33,330q-1.84,7.33-4.07,14.59c-.35,1.13-1.6,1.47-2.17.59-9.21-12.51-31.07-10.27-24.83-53a1.2,1.2,0,0,1,2.16-.66l.92,1.25c2.36,3.25,4.67,6.59,6.9,10a16,16,0,0,0,10.34,7.17,13.33,13.33,0,0,1,9.29,6.94A18.29,18.29,0,0,1,397.33,330Z"/><path class="cls-4" d="M397.33,330c-.64,2.55-1.31,5.08-2,7.61-9.24-10.63-28.46-9.81-26-44.87,2.36,3.25,4.67,6.59,6.9,10a16,16,0,0,0,10.34,7.17,13.33,13.33,0,0,1,9.29,6.94A18.29,18.29,0,0,1,397.33,330Z"/><path class="cls-5" d="M383.16,310.44c3,1.66,4.65,4.82,3.59,7s-4.36,2.42-7.34.66-4.56-4.8-3.56-6.86S380.12,308.77,383.16,310.44Z"/><path class="cls-5" d="M393.27,320.73c1.48,2.08,1.68,4.74.48,5.87s-3.32.31-4.76-1.79-1.68-4.65-.52-5.77S391.79,318.64,393.27,320.73Z"/><path class="cls-3" d="M404.17,292.09q-.84,7.49-2.07,14.91c-.19,1.15-1.38,1.66-2.06.87-10.82-11.13-32.2-6-31.72-49a1.21,1.21,0,0,1,2.06-.94l1.07,1.11q4.17,4.37,8.18,9a16,16,0,0,0,11.2,5.71A13.39,13.39,0,0,1,401,279.33,18.16,18.16,0,0,1,404.17,292.09Z"/><path class="cls-4" d="M404.17,292.09c-.29,2.6-.62,5.18-1,7.77-10.58-9.27-29.54-5.87-31.74-40.85q4.17,4.37,8.18,9a16,16,0,0,0,11.2,5.71A13.39,13.39,0,0,1,401,279.33,18.16,18.16,0,0,1,404.17,292.09Z"/><path class="cls-5" d="M387.51,274.68c3.24,1.23,5.26,4.14,4.49,6.42s-4,3-7.18,1.62-5.17-4.13-4.45-6.3S384.28,273.44,387.51,274.68Z"/><path class="cls-5" d="M398.9,283.49c1.75,1.86,2.31,4.46,1.27,5.74s-3.25.73-5-1.14-2.29-4.36-1.29-5.63S397.16,281.63,398.9,283.49Z"/><path class="cls-3" d="M405.89,253.75q.17,7.51-.07,15c0,1.16-1.15,1.82-1.93,1.13-12.2-9.59-32.7-1.55-38-44.35a1.21,1.21,0,0,1,1.92-1.2l1.21,1q4.71,3.76,9.3,7.83a16,16,0,0,0,11.86,4.18,13.34,13.34,0,0,1,10.8,4.22A18.1,18.1,0,0,1,405.89,253.75Z"/><path class="cls-4" d="M405.89,253.75c.05,2.6.07,5.21.06,7.81-11.72-7.77-30.05-1.84-36.89-36.25q4.71,3.76,9.3,7.83a16,16,0,0,0,11.86,4.18,13.34,13.34,0,0,1,10.8,4.22A18.1,18.1,0,0,1,405.89,253.75Z"/><path class="cls-5" d="M387.06,238.71c3.37.8,5.76,3.41,5.31,5.77s-3.57,3.47-6.9,2.56-5.68-3.4-5.25-5.65S383.69,237.91,387.06,238.71Z"/><path class="cls-5" d="M399.53,245.94c2,1.6,2.87,4.1,2,5.5s-3.12,1.16-5.06-.46-2.85-4-2-5.41S397.55,244.32,399.53,245.94Z"/><path class="cls-3" d="M402.49,215.49q1.15,7.44,1.94,14.93c.12,1.15-.9,2-1.77,1.37-13.38-7.91-32.58,2.88-43.56-39a1.2,1.2,0,0,1,1.73-1.45l1.34.8c3.45,2.09,6.88,4.27,10.28,6.57a16,16,0,0,0,12.31,2.58A13.29,13.29,0,0,1,396,204,18.23,18.23,0,0,1,402.49,215.49Z"/><path class="cls-4" d="M402.49,215.49q.6,3.87,1.1,7.76c-12.66-6.18-30,2.21-41.42-31.16,3.45,2.09,6.88,4.27,10.28,6.57a16,16,0,0,0,12.31,2.58A13.29,13.29,0,0,1,396,204,18.23,18.23,0,0,1,402.49,215.49Z"/><path class="cls-5" d="M381.82,203c3.44.35,6.17,2.63,6,5s-3.07,3.92-6.5,3.47-6.08-2.64-6-4.93S378.37,202.7,381.82,203Z"/><path class="cls-5" d="M395.14,208.57c2.17,1.34,3.4,3.7,2.73,5.21s-2.94,1.57-5.08.21-3.36-3.61-2.73-5.1S393,207.23,395.14,208.57Z"/><path class="cls-3" d="M399.87,181.45q1.53,7.53,2.66,15.09c.17,1.16-.81,2-1.71,1.4-13.9-8-32.41,3.81-45.92-38.93a1.19,1.19,0,0,1,1.66-1.55l1.4.79q5.4,3.09,10.75,6.5a16.3,16.3,0,0,0,12.56,2.41,13.62,13.62,0,0,1,11.51,2.67A19.42,19.42,0,0,1,399.87,181.45Z"/><path class="cls-4" d="M399.87,181.45q.79,3.92,1.48,7.84c-13.1-6.23-29.94,2.91-43.39-31q5.4,3.09,10.75,6.5a16.3,16.3,0,0,0,12.56,2.41,13.62,13.62,0,0,1,11.51,2.67A19.42,19.42,0,0,1,399.87,181.45Z"/><path class="cls-5" d="M378.4,169.05c3.49.29,6.36,2.58,6.34,5s-2.88,4-6.36,3.66-6.25-2.55-6.26-4.9S374.9,168.76,378.4,169.05Z"/><path class="cls-5" d="M392.12,174.49c2.26,1.34,3.61,3.72,3,5.26s-2.88,1.63-5.11.28-3.57-3.63-3-5.15S389.86,173.15,392.12,174.49Z"/><path class="cls-3" d="M415.92,334.66q-1.95,7.81-4.34,15.56c-.36,1.2.45,2.25,1.43,1.79,13.1-7.12,35.67,11.56,46.9-47.75.23-1.55-1-2.51-1.88-1.51l-1.26,1.37q-4.87,5.33-9.91,10.33c-3.68,3.66-8.16,5.17-12.36,4.38-4-.74-8,.75-11.36,3.62A23.78,23.78,0,0,0,415.92,334.66Z"/><path class="cls-4" d="M415.92,334.66c-.68,2.71-1.39,5.42-2.15,8.11,12.4-5.78,32.2,7.86,43-38.65q-4.87,5.33-9.91,10.33c-3.68,3.66-8.16,5.17-12.36,4.38-4-.74-8,.75-11.36,3.62A23.78,23.78,0,0,0,415.92,334.66Z"/><path class="cls-5" d="M437.45,320.77c-3.47.66-6.24,3.39-6.24,6.16s2.81,4.62,6.31,4.07,6.35-3.38,6.32-6.27S440.93,320.1,437.45,320.77Z"/><path class="cls-5" d="M423.85,327.48c-2.25,1.46-3.66,4-3.14,5.64s2.79,1.94,5.08.5,3.7-4,3.15-5.74S426.11,326,423.85,327.48Z"/><path class="cls-3" d="M423.22,294.23q-.9,8-2.2,15.91c-.21,1.22.74,2.15,1.65,1.57,12-8.77,36.87,6.75,40.09-53.33,0-1.57-1.32-2.36-2.08-1.25l-1.05,1.52q-4.12,5.91-8.45,11.53c-3.16,4.11-7.4,6.2-11.67,6-4.08-.2-7.87,1.8-10.77,5.07A23.56,23.56,0,0,0,423.22,294.23Z"/><path class="cls-4" d="M423.22,294.23q-.47,4.15-1,8.28c11.51-7.35,32.94,3.54,37.45-43.86q-4.12,5.91-8.45,11.53c-3.16,4.11-7.4,6.2-11.67,6-4.08-.2-7.87,1.8-10.77,5.07A23.56,23.56,0,0,0,423.22,294.23Z"/><path class="cls-5" d="M442.7,277.67c-3.36,1.12-5.74,4.18-5.37,6.91s3.4,4.19,6.8,3.19,5.84-4.18,5.43-7S446.05,276.56,442.7,277.67Z"/><path class="cls-5" d="M430.12,286.1c-2,1.74-3.1,4.39-2.36,6s3,1.54,5.09-.18,3.13-4.47,2.36-6.08S432.15,284.37,430.12,286.1Z"/><path class="cls-3" d="M425.05,253.33q.18,8-.06,16c0,1.24,1,2,1.85,1.34,10.75-10.31,37.43,1.85,32.63-58.18-.19-1.55-1.62-2.17-2.22-1-.28.55-.57,1.1-.85,1.66q-3.3,6.4-6.84,12.56c-2.58,4.5-6.5,7.13-10.76,7.48-4.08.35-7.57,2.84-10,6.47A23.62,23.62,0,0,0,425.05,253.33Z"/><path class="cls-4" d="M425.05,253.33q.1,4.17.07,8.33c10.43-8.83,33.12-.82,31.28-48.45q-3.3,6.4-6.84,12.56c-2.58,4.5-6.5,7.13-10.76,7.48-4.08.35-7.57,2.84-10,6.47A23.62,23.62,0,0,0,425.05,253.33Z"/><path class="cls-5" d="M442.16,234.34c-3.18,1.55-5.13,4.9-4.4,7.56s3.92,3.69,7.16,2.25,5.23-4.93,4.44-7.69S445.33,232.78,442.16,234.34Z"/><path class="cls-5" d="M430.81,244.36c-1.79,2-2.49,4.76-1.54,6.24s3.19,1.12,5-.86,2.51-4.84,1.53-6.33S432.6,242.37,430.81,244.36Z"/><path class="cls-3" d="M421.43,212.52q1.24,7.93,2.07,15.92c.12,1.23,1.28,1.88,2,1.08,9.26-11.69,37.39-3.06,24.54-62.21-.4-1.52-1.9-1.95-2.34-.67-.2.59-.4,1.18-.61,1.77q-2.4,6.83-5.08,13.43c-1.95,4.82-5.49,8-9.66,8.88-4,.89-7.12,3.84-9.05,7.77A23.73,23.73,0,0,0,421.43,212.52Z"/><path class="cls-4" d="M421.43,212.52q.65,4.13,1.18,8.27c9.14-10.18,32.74-5.18,24.49-52.38q-2.4,6.83-5.08,13.43c-1.95,4.82-5.49,8-9.66,8.88-4,.89-7.12,3.84-9.05,7.77A23.73,23.73,0,0,0,421.43,212.52Z"/><path class="cls-5" d="M435.83,191.35c-2.94,2-4.42,5.57-3.34,8.11s4.39,3.16,7.39,1.29,4.53-5.59,3.38-8.24S438.77,189.38,435.83,191.35Z"/><path class="cls-5" d="M425.93,202.84c-1.5,2.22-1.82,5.06-.69,6.41s3.32.69,4.86-1.52,1.84-5.16.67-6.51S427.44,200.62,425.93,202.84Z"/><path class="cls-3" d="M409.33,178.8q2.66,7.48,4.92,15.11c.35,1.18,1.59,1.55,2.16.61,6.87-13.5,35.69-11.84,12-66.91-.67-1.41-2.18-1.45-2.35-.08-.08.63-.16,1.26-.25,1.89q-1,7.34-2.3,14.47c-1,5.22-3.77,9.15-7.63,11-3.68,1.81-6.15,5.41-7.29,9.71A24.21,24.21,0,0,0,409.33,178.8Z"/><path class="cls-4" d="M409.33,178.8q1.38,3.9,2.66,7.83c7-12,30.77-12.74,13.81-57.21q-1,7.34-2.3,14.47c-1,5.22-3.77,9.15-7.63,11-3.68,1.81-6.15,5.41-7.29,9.71A24.21,24.21,0,0,0,409.33,178.8Z"/><path class="cls-5" d="M419.34,154.72c-2.46,2.64-3.23,6.51-1.71,8.75s4.82,2.06,7.37-.49,3.31-6.58,1.71-8.9S421.8,152.09,419.34,154.72Z"/><path class="cls-5" d="M411.92,168.3c-1.05,2.52-.84,5.37.5,6.43s3.34-.08,4.43-2.61.82-5.47-.56-6.53S413,165.78,411.92,168.3Z"/><path class="cls-3" d="M391.26,148.35q1.37,7.62,2.3,15.19c.14,1.17-.88,1.89-1.78,1.24-14.08-9.4-32.7,1.78-46.25-42.65a1.16,1.16,0,0,1,1.71-1.47l1.43.9q5.55,3.54,11,7.39a17.91,17.91,0,0,0,12.86,3.44,14.86,14.86,0,0,1,11.78,3.72A21,21,0,0,1,391.26,148.35Z"/><path class="cls-4" d="M391.26,148.35c.47,2.64.91,5.28,1.3,7.91-13.31-7.59-30.36.75-43.89-34.7q5.55,3.54,11,7.39a17.91,17.91,0,0,0,12.86,3.44,14.86,14.86,0,0,1,11.78,3.72A21,21,0,0,1,391.26,148.35Z"/><path class="cls-5" d="M369.53,134.05c3.58.58,6.48,3.13,6.41,5.58s-3,3.81-6.57,3.15-6.35-3-6.32-5.39S366,133.47,369.53,134.05Z"/><path class="cls-5" d="M383.5,140.69c2.28,1.54,3.61,4.05,3,5.52s-3,1.35-5.24-.19-3.57-3.93-3-5.4S381.21,139.14,383.5,140.69Z"/><path class="cls-3" d="M395.53,146.6q4.43,6.5,8.52,13.26c.63,1,1.89,1,2.17-.11,3-15.44,29.83-24.15-7-70.23-1-1.16-2.37-.66-2.14.77.11.65.21,1.31.31,2q1.17,7.64,1.91,15.15c.55,5.5-.95,10.37-4,13.53s-4.23,7.38-4.17,12A25.25,25.25,0,0,0,395.53,146.6Z"/><path class="cls-4" d="M395.53,146.6c1.53,2.25,3,4.53,4.51,6.83,3.51-14,25.08-23.13-2.64-61.18q1.17,7.64,1.91,15.15c.55,5.5-.95,10.37-4,13.53s-4.23,7.38-4.17,12A25.25,25.25,0,0,0,395.53,146.6Z"/><path class="cls-5" d="M398.44,119.54c-1.55,3.44-1.23,7.51.76,9.21s5,.4,6.64-3,1.25-7.66-.84-9.39S400,116.11,398.44,119.54Z"/><path class="cls-5" d="M395.2,135.42c-.31,2.83.63,5.56,2.15,6.16s3.08-1.18,3.42-4-.68-5.67-2.24-6.24S395.51,132.59,395.2,135.42Z"/><path class="cls-6" d="M322.07,223.75V424.83a24.52,24.52,0,0,1-24.5,24.52H214.45a24.52,24.52,0,0,1-24.52-24.52V223.75a33.6,33.6,0,0,1,25.28-32.59,17.13,17.13,0,0,0,12.88-15.69l4.84-88.89h-.69A7.42,7.42,0,0,1,225,77.46L230,56a7.43,7.43,0,0,1,7.23-5.77h37.52A7.45,7.45,0,0,1,282,56l5,21.51a7.44,7.44,0,0,1-7.25,9.12h-.69l4.84,88.89a17.11,17.11,0,0,0,12.88,15.69A33.61,33.61,0,0,1,322.07,223.75Z"/><path class="cls-7" d="M322.07,223.75V424.83a24.52,24.52,0,0,1-24.5,24.52h-60a24.52,24.52,0,0,1-24.51-24.52V231.33A25.27,25.27,0,0,1,238.34,206a17.17,17.17,0,0,0,12.88-15.69L256,80.24v0a.29.29,0,0,0-.3-.28,7.73,7.73,0,0,1-7.53-9.48l4.7-20.27h21.85A7.45,7.45,0,0,1,282,56l5,21.51a7.44,7.44,0,0,1-7.25,9.12h-.69l4.84,88.89a17.11,17.11,0,0,0,12.88,15.69A33.61,33.61,0,0,1,322.07,223.75Z"/><path class="cls-8" d="M289.78,45.57v4.17A6.19,6.19,0,0,1,283.59,56H228.43a6.21,6.21,0,0,1-6.21-6.21V45.57a6.21,6.21,0,0,1,6.21-6.21h55.16A6.19,6.19,0,0,1,289.78,45.57Z"/><path class="cls-3" d="M289.78,45.57v4.17A6.19,6.19,0,0,1,283.59,56H241.85a6.19,6.19,0,0,1-6.19-6.21V45.57a6.19,6.19,0,0,1,6.19-6.21h41.74A6.19,6.19,0,0,1,289.78,45.57Z"/><ellipse class="cls-9" cx="287.13" cy="207.48" rx="12.32" ry="20.62" transform="translate(-62.61 263.8) rotate(-45)"/><ellipse class="cls-9" cx="307.48" cy="241.74" rx="8.76" ry="14.18" transform="translate(-42.86 67.84) rotate(-11.78)"/><path class="cls-9" d="M213.05,409.53H262.7a7.65,7.65,0,0,1,7.65,7.65v0a7.65,7.65,0,0,1-7.65,7.65H213.05a0,0,0,0,1,0,0V409.53A0,0,0,0,1,213.05,409.53Z"/><rect class="cls-9" x="280.83" y="409.53" width="28.39" height="15.29" rx="7.65"/><path class="cls-9" d="M273.7,99.29h0a6.4,6.4,0,0,1,6.39,6.06l2.49,45.72a6.4,6.4,0,0,1-6.39,6.75H273.7a6.4,6.4,0,0,1-6.4-6.4V105.69A6.4,6.4,0,0,1,273.7,99.29Z"/><polygon class="cls-3" points="322.07 273.63 322.07 380.92 189.93 380.92 189.93 273.63 213.06 260.61 256 236.45 322.07 273.63"/><polygon class="cls-8" points="213.06 260.61 213.06 380.92 189.93 380.92 189.93 273.63 213.06 260.61"/><path class="cls-10" d="M322.07,298.38H295.8c-6.37-17.09-21.79-29.15-39.8-29.15s-33.43,12.06-39.8,29.15H189.93v35H216.2c6.37,17.09,21.79,29.15,39.8,29.15s33.43-12.06,39.8-29.15h26.27Z"/><rect class="cls-11" x="189.93" y="298.38" width="23.13" height="35.04"/><ellipse class="cls-12" cx="256" cy="315.9" rx="31.13" ry="33.84"/><ellipse class="cls-13" cx="256" cy="315.9" rx="23.24" ry="25.26"/><rect class="cls-14" x="242.94" y="301.33" width="25.82" height="6.85" rx="3.42"/><rect class="cls-14" x="234.46" y="313.68" width="42.78" height="6.85" rx="3.42"/><path class="cls-3" d="M106,204.18A292.91,292.91,0,0,0,141.08,408.6a6.14,6.14,0,0,1,.87,3.83,4.54,4.54,0,0,1-.34,1.24,3.5,3.5,0,0,1-1.37,1.62c-2,1.21-4.82.12-6.34-2.47A301.27,301.27,0,0,1,97.81,202.59c.56-2.85,2.87-4.76,5.12-4.27a3.49,3.49,0,0,1,1.84,1.05A5.46,5.46,0,0,1,106,204.18Z"/><path class="cls-4" d="M106,204.18A292.91,292.91,0,0,0,141.08,408.6a6.14,6.14,0,0,1,.87,3.83,4.54,4.54,0,0,1-.34,1.24,5.58,5.58,0,0,1-4.24-2.89,297.19,297.19,0,0,1-35.6-207.42,5.34,5.34,0,0,1,3-4A5.46,5.46,0,0,1,106,204.18Z"/><path class="cls-3" d="M96.08,334.66q2,7.81,4.34,15.56c.36,1.2-.45,2.25-1.43,1.79-13.1-7.12-35.68,11.56-46.9-47.75-.23-1.55,1-2.51,1.88-1.51l1.26,1.37q4.88,5.33,9.91,10.33c3.68,3.66,8.16,5.17,12.36,4.38,4-.74,8,.75,11.36,3.62A23.78,23.78,0,0,1,96.08,334.66Z"/><path class="cls-4" d="M96.08,334.66c.68,2.71,1.39,5.42,2.15,8.11-12.4-5.78-32.2,7.86-43-38.65q4.88,5.33,9.91,10.33c3.68,3.66,8.16,5.17,12.36,4.38,4-.74,8,.75,11.36,3.62A23.78,23.78,0,0,1,96.08,334.66Z"/><path class="cls-5" d="M74.55,320.77c3.47.66,6.24,3.39,6.24,6.16S78,331.55,74.48,331s-6.35-3.38-6.32-6.27S71.07,320.1,74.55,320.77Z"/><path class="cls-5" d="M88.15,327.48c2.25,1.46,3.66,4,3.14,5.64s-2.79,1.94-5.08.5-3.7-4-3.15-5.74S85.89,326,88.15,327.48Z"/><path class="cls-3" d="M88.78,294.23q.9,8,2.2,15.91c.21,1.22-.74,2.15-1.65,1.57-12-8.77-36.87,6.75-40.09-53.33,0-1.57,1.32-2.36,2.08-1.25l1,1.52q4.13,5.91,8.45,11.53c3.16,4.11,7.4,6.2,11.67,6,4.08-.2,7.87,1.8,10.77,5.07A23.56,23.56,0,0,1,88.78,294.23Z"/><path class="cls-4" d="M88.78,294.23q.47,4.15,1,8.28c-11.51-7.35-32.94,3.54-37.45-43.86q4.13,5.91,8.45,11.53c3.16,4.11,7.4,6.2,11.67,6,4.08-.2,7.87,1.8,10.77,5.07A23.56,23.56,0,0,1,88.78,294.23Z"/><path class="cls-5" d="M69.3,277.67c3.36,1.12,5.74,4.18,5.37,6.91s-3.4,4.19-6.8,3.19-5.84-4.18-5.43-7S66,276.56,69.3,277.67Z"/><path class="cls-5" d="M81.88,286.1c2,1.74,3.1,4.39,2.36,6s-3,1.54-5.09-.18-3.13-4.47-2.36-6.08S79.85,284.37,81.88,286.1Z"/><path class="cls-3" d="M87,253.33q-.18,8,.06,16c0,1.24-1,2-1.85,1.34-10.75-10.31-37.43,1.85-32.63-58.18.19-1.55,1.62-2.17,2.22-1,.28.55.57,1.1.85,1.66q3.3,6.4,6.84,12.56c2.58,4.5,6.5,7.13,10.76,7.48,4.08.35,7.57,2.84,10,6.47A23.62,23.62,0,0,1,87,253.33Z"/><path class="cls-4" d="M87,253.33q-.11,4.17-.07,8.33c-10.43-8.83-33.12-.82-31.28-48.45q3.3,6.4,6.84,12.56c2.58,4.5,6.5,7.13,10.76,7.48,4.08.35,7.57,2.84,10,6.47A23.62,23.62,0,0,1,87,253.33Z"/><path class="cls-5" d="M69.84,234.34c3.18,1.55,5.13,4.9,4.4,7.56s-3.92,3.69-7.16,2.25-5.23-4.93-4.44-7.69S66.67,232.78,69.84,234.34Z"/><path class="cls-5" d="M81.19,244.36c1.79,2,2.49,4.76,1.54,6.24s-3.19,1.12-5-.86-2.51-4.84-1.53-6.33S79.4,242.37,81.19,244.36Z"/><path class="cls-3" d="M90.57,212.52q-1.25,7.93-2.07,15.92c-.12,1.23-1.28,1.88-2,1.08C77.23,217.83,49.1,226.46,62,167.31c.4-1.52,1.9-1.95,2.34-.67.2.59.4,1.18.61,1.77q2.4,6.83,5.08,13.43c2,4.82,5.49,8,9.66,8.88,4,.89,7.12,3.84,9,7.77A23.73,23.73,0,0,1,90.57,212.52Z"/><path class="cls-4" d="M90.57,212.52q-.64,4.13-1.18,8.27c-9.15-10.18-32.74-5.18-24.49-52.38q2.4,6.83,5.08,13.43c2,4.82,5.49,8,9.66,8.88,4,.89,7.12,3.84,9,7.77A23.73,23.73,0,0,1,90.57,212.52Z"/><path class="cls-5" d="M76.17,191.35c2.94,2,4.42,5.57,3.34,8.11s-4.39,3.16-7.39,1.29-4.54-5.59-3.38-8.24S73.23,189.38,76.17,191.35Z"/><path class="cls-5" d="M86.07,202.84c1.5,2.22,1.82,5.06.69,6.41s-3.32.69-4.86-1.52-1.84-5.16-.67-6.51S84.56,200.62,86.07,202.84Z"/><path class="cls-3" d="M102.67,178.8q-2.65,7.48-4.92,15.11c-.35,1.18-1.59,1.55-2.16.61-6.87-13.5-35.69-11.84-12-66.91.67-1.41,2.18-1.45,2.35-.08.08.63.16,1.26.25,1.89q1,7.34,2.3,14.47c1,5.22,3.77,9.15,7.63,11,3.68,1.81,6.14,5.41,7.29,9.71A24.21,24.21,0,0,1,102.67,178.8Z"/><path class="cls-4" d="M102.67,178.8q-1.38,3.9-2.66,7.83c-7-12-30.77-12.74-13.81-57.21q1,7.34,2.3,14.47c1,5.22,3.77,9.15,7.63,11,3.68,1.81,6.14,5.41,7.29,9.71A24.21,24.21,0,0,1,102.67,178.8Z"/><path class="cls-5" d="M92.66,154.72c2.46,2.64,3.23,6.51,1.71,8.75S89.55,165.53,87,163s-3.31-6.58-1.71-8.9S90.2,152.09,92.66,154.72Z"/><path class="cls-5" d="M100.08,168.3c1,2.52.84,5.37-.5,6.43s-3.34-.08-4.43-2.61-.82-5.47.56-6.53S99,165.78,100.08,168.3Z"/><path class="cls-3" d="M114.67,330q1.85,7.33,4.07,14.59c.35,1.13,1.6,1.47,2.17.59,9.21-12.51,31.07-10.27,24.83-53a1.2,1.2,0,0,0-2.16-.66l-.92,1.25c-2.36,3.25-4.67,6.59-6.9,10a16,16,0,0,1-10.34,7.17,13.33,13.33,0,0,0-9.29,6.94A18.29,18.29,0,0,0,114.67,330Z"/><path class="cls-4" d="M114.67,330c.64,2.55,1.31,5.08,2,7.61,9.24-10.63,28.46-9.81,26-44.87-2.36,3.25-4.67,6.59-6.9,10a16,16,0,0,1-10.34,7.17,13.33,13.33,0,0,0-9.29,6.94A18.29,18.29,0,0,0,114.67,330Z"/><path class="cls-5" d="M128.84,310.44c-3,1.66-4.66,4.82-3.59,7s4.36,2.42,7.34.66,4.56-4.8,3.56-6.86S131.88,308.77,128.84,310.44Z"/><path class="cls-5" d="M118.73,320.73c-1.48,2.08-1.68,4.74-.48,5.87s3.32.31,4.76-1.79,1.68-4.65.52-5.77S120.21,318.64,118.73,320.73Z"/><path class="cls-3" d="M107.83,292.09q.84,7.49,2.07,14.91c.19,1.15,1.38,1.66,2.06.87,10.82-11.13,32.2-6,31.72-49a1.21,1.21,0,0,0-2.06-.94L140.55,259q-4.17,4.37-8.18,9a16,16,0,0,1-11.2,5.71A13.39,13.39,0,0,0,111,279.33,18.16,18.16,0,0,0,107.83,292.09Z"/><path class="cls-4" d="M107.83,292.09c.29,2.6.62,5.18,1,7.77,10.58-9.27,29.54-5.87,31.74-40.85q-4.17,4.37-8.18,9a16,16,0,0,1-11.2,5.71A13.39,13.39,0,0,0,111,279.33,18.16,18.16,0,0,0,107.83,292.09Z"/><path class="cls-5" d="M124.49,274.68c-3.24,1.23-5.26,4.14-4.49,6.42s4,3,7.18,1.62,5.17-4.13,4.45-6.3S127.72,273.44,124.49,274.68Z"/><path class="cls-5" d="M113.1,283.49c-1.75,1.86-2.31,4.46-1.27,5.74s3.25.73,5-1.14,2.29-4.36,1.29-5.63S114.84,281.63,113.1,283.49Z"/><path class="cls-3" d="M106.11,253.75q-.17,7.51.07,15c0,1.16,1.15,1.82,1.93,1.13,12.19-9.59,32.7-1.55,38-44.35a1.21,1.21,0,0,0-1.92-1.2l-1.21,1q-4.71,3.76-9.3,7.83a16,16,0,0,1-11.86,4.18,13.33,13.33,0,0,0-10.8,4.22A18.1,18.1,0,0,0,106.11,253.75Z"/><path class="cls-4" d="M106.11,253.75c0,2.6-.07,5.21-.06,7.81,11.72-7.77,30.05-1.84,36.89-36.25q-4.71,3.76-9.3,7.83a16,16,0,0,1-11.86,4.18,13.33,13.33,0,0,0-10.8,4.22A18.1,18.1,0,0,0,106.11,253.75Z"/><path class="cls-5" d="M124.94,238.71c-3.37.8-5.77,3.41-5.31,5.77s3.57,3.47,6.9,2.56,5.68-3.4,5.25-5.65S128.31,237.91,124.94,238.71Z"/><path class="cls-5" d="M112.47,245.94c-2,1.6-2.87,4.1-2,5.5s3.12,1.16,5.06-.46,2.85-4,2-5.41S114.45,244.32,112.47,245.94Z"/><path class="cls-3" d="M109.51,215.49q-1.16,7.44-1.94,14.93c-.12,1.15.9,2,1.77,1.37,13.38-7.91,32.58,2.88,43.56-39a1.2,1.2,0,0,0-1.73-1.45l-1.34.8c-3.45,2.09-6.88,4.27-10.28,6.57a16,16,0,0,1-12.31,2.58A13.29,13.29,0,0,0,116,204,18.23,18.23,0,0,0,109.51,215.49Z"/><path class="cls-4" d="M109.51,215.49q-.6,3.87-1.1,7.76c12.66-6.18,30,2.21,41.42-31.16-3.45,2.09-6.88,4.27-10.28,6.57a16,16,0,0,1-12.31,2.58A13.29,13.29,0,0,0,116,204,18.23,18.23,0,0,0,109.51,215.49Z"/><path class="cls-5" d="M130.18,203c-3.44.35-6.16,2.63-6,5s3.07,3.92,6.5,3.47,6.08-2.64,6-4.93S133.63,202.7,130.18,203Z"/><path class="cls-5" d="M116.86,208.57c-2.17,1.34-3.4,3.7-2.73,5.21s2.94,1.57,5.08.21,3.36-3.61,2.73-5.1S119,207.23,116.86,208.57Z"/><path class="cls-3" d="M112.13,181.45q-1.53,7.53-2.66,15.09c-.17,1.16.81,2,1.71,1.4,13.9-8,32.41,3.81,45.92-38.93a1.2,1.2,0,0,0-1.66-1.55l-1.4.79q-5.4,3.09-10.75,6.5a16.3,16.3,0,0,1-12.56,2.41,13.62,13.62,0,0,0-11.51,2.67A19.42,19.42,0,0,0,112.13,181.45Z"/><path class="cls-4" d="M112.13,181.45q-.8,3.92-1.48,7.84c13.1-6.23,29.94,2.91,43.39-31q-5.4,3.09-10.75,6.5a16.3,16.3,0,0,1-12.56,2.41,13.62,13.62,0,0,0-11.51,2.67A19.42,19.42,0,0,0,112.13,181.45Z"/><path class="cls-5" d="M133.6,169.05c-3.49.29-6.36,2.58-6.34,5s2.88,4,6.36,3.66,6.25-2.55,6.26-4.9S137.1,168.76,133.6,169.05Z"/><path class="cls-5" d="M119.88,174.49c-2.26,1.34-3.61,3.72-3,5.26s2.88,1.63,5.11.28,3.57-3.63,3-5.15S122.14,173.15,119.88,174.49Z"/><path class="cls-3" d="M116.47,146.6Q112,153.1,108,159.86c-.63,1-1.88,1-2.17-.11-3-15.44-29.83-24.15,7-70.23,1-1.16,2.37-.66,2.14.77-.11.65-.21,1.31-.31,2q-1.17,7.64-1.91,15.15c-.55,5.5,1,10.37,4,13.53,2.89,3,4.23,7.38,4.17,12A25.25,25.25,0,0,1,116.47,146.6Z"/><path class="cls-4" d="M116.47,146.6c-1.53,2.25-3,4.53-4.51,6.83-3.51-14-25.08-23.13,2.64-61.18q-1.17,7.64-1.91,15.15c-.55,5.5,1,10.37,4,13.53,2.89,3,4.23,7.38,4.17,12A25.25,25.25,0,0,1,116.47,146.6Z"/><path class="cls-5" d="M113.56,119.54c1.55,3.44,1.23,7.51-.76,9.21s-5,.4-6.64-3-1.25-7.66.84-9.39S112,116.11,113.56,119.54Z"/><path class="cls-5" d="M116.8,135.42c.31,2.83-.62,5.56-2.15,6.16s-3.08-1.18-3.42-4,.69-5.67,2.24-6.24S116.49,132.59,116.8,135.42Z"/><path class="cls-3" d="M120.74,148.35q-1.36,7.62-2.3,15.19c-.14,1.17.88,1.89,1.78,1.24,14.08-9.4,32.7,1.78,46.25-42.65a1.16,1.16,0,0,0-1.71-1.47l-1.43.9q-5.55,3.54-11,7.39a17.91,17.91,0,0,1-12.86,3.44,14.86,14.86,0,0,0-11.78,3.72A21,21,0,0,0,120.74,148.35Z"/><path class="cls-4" d="M120.74,148.35c-.47,2.64-.91,5.28-1.3,7.91,13.31-7.59,30.36.75,43.89-34.7q-5.55,3.54-11,7.39a17.91,17.91,0,0,1-12.86,3.44,14.86,14.86,0,0,0-11.78,3.72A21,21,0,0,0,120.74,148.35Z"/><path class="cls-5" d="M142.47,134.05c-3.58.58-6.48,3.13-6.41,5.58s3,3.81,6.57,3.15,6.35-3,6.32-5.39S146.05,133.47,142.47,134.05Z"/><path class="cls-5" d="M128.5,140.69c-2.28,1.54-3.61,4.05-3,5.52s3,1.35,5.24-.19,3.57-3.93,3-5.4S130.79,139.14,128.5,140.69Z"/></svg>